<svg version="1.1" id="Слой_1" xmlns="http://www.w3.org/2000/svg" xmlns:xlink="http://www.w3.org/1999/xlink" x="0px" y="0px"
	 width="186px" height="149px" viewBox="0 0 186 149" style="enable-background:new 0 0 186 149;" xml:space="preserve">
<style type="text/css">
	.st0{fill:#17A3C5;}
	.st1{fill:#3394D2;}

</style>
<g>

	<rect x="0.2" y="72" transform="matrix(-1 -4.534651e-11 4.534651e-11 -1 19.1293 174.9156)" class="st0" width="18.8" height="30.9">
		<animate attributeName="height" values="30.9;70;30.9"  dur="0.55s"   begin=".1s; line7.end+0.1s" />
		<animate attributeName="y" values="72;65;72" dur="0.55s"   begin=".1; line7.end+0.1s"/>
	</rect>
	<rect x="27.9" y="49.3" transform="matrix(-1 -4.442503e-11 4.442503e-11 -1 74.4961 175.0272)" class="st1" width="18.8" height="76.4">
		<animate attributeName="height" values="76.4;110;76.4" dur="0.55s"  begin=".3; line7.end+0.3s"/>
		<animate attributeName="y" values="49.3;30;49.3" dur="0.55s"   begin=".3; line7.end+0.3s"/>
	</rect>

	<rect x="55.6" y="33" transform="matrix(-1 -4.500723e-11 4.500723e-11 -1 129.863 181.5014)" class="st0" width="18.8" height="115.4">
		<animate attributeName="height" values="115.4;65;115.4" dur="0.55s"   begin=".5; line7.end+0.5s"/>
		<animate attributeName="y" values="33;50;33" dur="0.55s"   begin=".5; line7.end+0.5s"/>
	</rect>

	<rect x="83.2" y="0" transform="matrix(-1 -4.461910e-11 4.461910e-11 -1 185.2298 112.2943)" class="st0" width="18.8" height="112.3">
		<animate id="line4" attributeName="height" values="112.3;40;112.3" dur="0.55s"   begin=".7; line7.end+0.7s"/>
		<animate attributeName="y" values="0;20;0" dur="0.55s"   begin=".7; line7.end+0.7s"/>
	</rect>

	<rect x="110.9" y="58.8" transform="matrix(-1 -4.587987e-11 4.587987e-11 -1 240.5967 191.0322)" class="st1" width="18.8" height="73.5">
		<animate attributeName="height" values="73.5;40;73.5" dur="0.55s"  begin=".9; line7.end+0.9s"/>
		<animate attributeName="y" values="58.8;70;58.8" dur="0.55s"   begin=".9; line7.end+0.9s"/>
	</rect>
	
	<rect x="138.6" y="41.8" transform="matrix(-1 -4.490998e-11 4.490998e-11 -1 295.9636 159.4983)" class="st0" width="18.8" height="75.9">

		<animate attributeName="height"	values="75.9;130;75.9;"	dur="0.55s"  begin="1.1; line7.end+1.1s" />
		<animate attributeName="y" values="41.8;20;41.8" dur="0.55s"   begin="1.1; line7.end+1.1s"/>
	</rect>

	
	<rect x="166.3" y="77.5" transform="matrix(-1 -4.539492e-11 4.539492e-11 -1 351.393 181.7674)" class="st0" width="18.8" height="26.7">
		<animate id="line7" attributeName="height" values="26.7;60;26.7" dur="0.55s"  begin="1.3; line7.end+1.3s" />
		<animate attributeName="y" values="77.5;70;77.5" dur="0.55s"  begin="1.3; line7.end+1.3s" />
	</rect>






</g>
</svg>