<?xml version="1.0" encoding="utf-8"?>
<!-- Generator: Adobe Illustrator 21.0.2, SVG Export Plug-In . SVG Version: 6.00 Build 0)  -->
<svg version="1.1" id="Слой_1" xmlns="http://www.w3.org/2000/svg" xmlns:xlink="http://www.w3.org/1999/xlink" x="0px" y="0px"
	 width="385px" height="399.2px" viewBox="0 0 385 399.2" style="enable-background:new 0 0 385 399.2;" xml:space="preserve">
<style type="text/css">
	.st0{fill:#EFEFEF;}
	.st1{fill:#1BA3C6;}
</style>
<g>
	<g>
		<g>
			
				<rect x="262" y="75" transform="matrix(-1 -4.487844e-11 4.487844e-11 -1 552.3198 264.1051)" class="st0" width="28.2" height="114.2"/>
			
				<rect x="303.8" y="128.7" transform="matrix(-1 -4.487844e-11 4.487844e-11 -1 635.762 297.6285)" class="st0" width="28.2" height="40.3"/>
			
				<rect x="220.4" y="100.5" transform="matrix(-1 -4.503965e-11 4.503965e-11 -1 468.9718 311.5756)" class="st1" width="28.2" height="110.7"/>
			
				<rect x="178.7" y="12" transform="matrix(-1 -4.487844e-11 4.487844e-11 -1 385.6237 193.0452)" class="st0" width="28.2" height="169"/>
			
				<rect x="137" y="61.7" transform="matrix(-1 -4.487844e-11 4.487844e-11 -1 302.2757 297.2282)" class="st0" width="28.2" height="173.8"/>
			
				<rect x="95.3" y="86.3" transform="matrix(-1 -4.484647e-11 4.484647e-11 -1 218.9276 287.482)" class="st1" width="28.2" height="114.9"/>
			
				<rect x="53.7" y="120.4" transform="matrix(-1 -4.484647e-11 4.484647e-11 -1 135.5796 287.314)" class="st0" width="28.2" height="46.5"/>
		</g>
		<g>
			<g>
				<path class="st0" d="M335.6,292.1c5.8-9.9,14.6-12.5,25-11.2c10,1.2,17.8,9.9,19.2,20.8c0.3,2.7,0.5,5.3,0.5,8
					c0,12.7,0,25.5,0,38.2l0,3.3H373c0-12.7,0.1-32,0-44.7c0-5.1-1.3-9.9-4.8-13.8c-4.5-5.1-10.4-5.7-16.6-4.5
					c-6.3,1.3-9.7,5.8-11.4,11.8c-0.7,2.6-1.1,5.2-1.1,8c0,13.2,0,39.7,0,39.7l0,3.6l-7.3,0c0-13.4,0.1-32.8-0.1-46.2
					c-0.1-7.9-4.6-14.6-10.9-16.3c-10.7-2.9-20.3,1.1-22.4,14.5c-0.4,2.6-0.5,5.2-0.5,7.8c0,12.2-0.1,28,0,40.3h-7.2
					c0,0,0-1.2,0-6.3c0-12.3,0-24.6,0-37c0-4.6,0.7-9.1,2.5-13.3c4.2-9.9,12.6-14.8,23.8-14C325.5,281.3,331,284.6,335.6,292.1z"/>
				<path class="st0" d="M143.5,389.8c0,0,2.8-0.3,4.1-0.6c7.6-1.5,10.9-6.8,12.5-13.7c0.4-1.8,0.5-3.7,0.5-5.6c0-9,0-18.1,0-27.7
					c-8.9,12-29.2,10.9-36.6,2c-3.7-4.4-5.4-9.5-5.4-15.1c-0.2-15.2,0-30.5-0.1-45.7c0-1.4,0-2.9,0-2.9h7.3c0,13.5,0,33.6,0,47
					c0,2,0.2,3.9,0.6,5.8c1.4,6.3,5.6,9.3,11.7,10.4c8.5,1.4,17.4-2.5,20.8-9.4c1.1-2.2,1.6-4.6,1.6-7.1c0-14.4,0-46.7,0-46.7h7.3
					c0,0,0,1.2,0,6.4c0,27.9,0.1,55.8,0,83.7c0,8.1-2,15.9-8.7,21c-4.5,3.1-15.7,5.1-15.7,5.1V389.8z"/>
				<path class="st0" d="M225.1,351.3c0-30.3,0-99.7,0-99.7h7.5v5.5v29.3c0,0,0,1.8,0,2.7c6.7-7.9,15.6-9.6,25.2-7.7
					c9.3,1.8,15.6,9.1,16.4,18.7l0.4,48.2v3.1h-7.4c0-13.1,0-32.9,0-46c0-2-0.1-4.1-0.5-6.1c-1.4-7.2-5.1-10.2-13.5-11.2
					c-9.5-1.1-18.2,4.4-20.3,12.9c-0.4,1.4-0.3,2.9-0.3,4.4c0,14.1-0.1,32,0,46.1"/>
				<path class="st0" d="M192.2,312.9c0,6.9,0,13.9,0,20.8c0,6.2,2.9,9.1,9.1,9.2c0.5,0,1,0,1.5,0c5.5,0,5.9,0.5,5.1,6
					c-0.1,0.8-0.4,1.2-1.2,1.1c-3.4-0.1-6.9,0.3-10.3-0.3c-6.5-1.3-10.9-6.4-11.4-13.1c-0.1-1.5-0.2-2.9-0.2-4.4
					c0-25.9,0-51.9-0.1-77.8c0-2.2,0.6-2.7,2.7-2.6c4.7,0.2,4.7,0,4.7,4.7c0,7.8,0,15.7,0,23.5c0,1.5,0.3,1.9,1.9,1.9
					c3.9-0.1,13.5,0,13.5,0l0,7.2l-5.4,0l-7.6,0c-1.8,0-2.5,0.3-2.4,2.3C192.3,298.5,192.2,305.7,192.2,312.9z"/>
				<g>
					<path class="st0" d="M5.4,351.3c0-12.7,0-31.8,0-44.5c0-5.2,1.2-10.2,3.7-14.7c4.9-8.8,12.6-11.5,22.3-11.5h3.7
						c0,1.2,0,6.7,0,8.1c-3.5-1-6.9-1.1-10.3-0.3c-7.1,1.7-10.2,6.9-11.7,13.5c-0.5,2-0.6,4-0.6,6.1c0,13.3-0.1,30.1,0,43.4H5.4z"/>
				</g>
			</g>
		</g>
	</g>
	<path class="st0" d="M53.9,351.3c0-30.3,0-99.7,0-99.7h7.5v5.5v29.3c0,0,0,1.8,0,2.7c6.7-7.9,15.6-9.6,25.2-7.7
		c9.3,1.8,15.6,9.1,16.4,18.7l0.4,48.2v3.1H96c0-13.1,0-32.9,0-46c0-2-0.1-4.1-0.5-6.1c-1.4-7.2-5.1-10.2-13.5-11.2
		c-9.5-1.1-18.2,4.4-20.3,12.9c-0.4,1.4-0.3,2.9-0.3,4.4c0,14.1-0.1,32,0,46.1H53.9z"/>
</g>
</svg>
