<?xml version="1.0" encoding="utf-8"?>
<!-- Generator: Adobe Illustrator 19.2.1, SVG Export Plug-In . SVG Version: 6.00 Build 0)  -->
<svg version="1.1" id="Слой_1" xmlns="http://www.w3.org/2000/svg" xmlns:xlink="http://www.w3.org/1999/xlink" x="0px" y="0px"
	 viewBox="0 0 555.1 547.1" style="enable-background:new 0 0 555.1 547.1;" xml:space="preserve">
<style type="text/css">
	.st0{fill:#EFEFEF;}
	.st1{fill:none;stroke:#CBDDE9;stroke-width:5;stroke-miterlimit:10;}
	.st2{fill:none;stroke:#CBDDE9;stroke-width:4;stroke-miterlimit:10;}
	.st3{fill:none;stroke:#CBDDE9;stroke-width:3;stroke-miterlimit:10;}
	.st4{fill:#F9EAB0;}
	.st5{fill:#805C54;}
	.st6{fill:#799298;}
	.st7{fill:#CBDDE9;}
	.st8{fill:#BEC4C8;}
	.st9{fill:#A5A5A4;}
	.st10{fill:#517887;}
	.st11{fill:#A6BECC;}
	.st12{fill:#806F5E;}
	.st13{opacity:0.4;}
	.st14{fill:#47555A;}
	.st15{fill:#ECF0F1;}
	.st16{fill:#D1D4D2;}
</style>
<g>
	<circle class="st0" cx="283.7" cy="323.5" r="223.6"/>
	<circle class="st0" cx="407.8" cy="199" r="27"/>
	<circle class="st1" cx="465.1" cy="142.3" r="14.1"/>
	<circle class="st1" cx="503.8" cy="115.1" r="10.2"/>
	<circle class="st2" cx="462.3" cy="104.9" r="6"/>
	<ellipse transform="matrix(0.7071 -0.7071 0.7071 0.7071 85.2946 264.9375)" class="st2" cx="362.5" cy="29.5" rx="6" ry="6"/>
	
		<ellipse transform="matrix(0.7071 -0.7071 0.7071 0.7071 -145.1925 77.8594)" class="st1" cx="21.4" cy="214.2" rx="14.1" ry="14.1"/>
	
		<ellipse transform="matrix(0.7071 -0.7071 0.7071 0.7071 -17.1171 89.8578)" class="st1" cx="99.9" cy="65.6" rx="14.1" ry="14.1"/>
	
		<ellipse transform="matrix(0.7071 -0.7071 0.7071 0.7071 -73.2517 107.6583)" class="st1" cx="93.3" cy="142.3" rx="10.2" ry="10.2"/>
	<ellipse transform="matrix(0.7071 -0.7071 0.7071 0.7071 -59.6929 140.3919)" class="st2" cx="139.6" cy="142.3" rx="6" ry="6"/>
	<ellipse transform="matrix(0.7071 -0.7071 0.7071 0.7071 -110.2598 52.9564)" class="st3" cx="8.8" cy="159.6" rx="4.3" ry="4.3"/>
	<ellipse transform="matrix(0.7071 -0.7071 0.7071 0.7071 6.8291 105.0501)" class="st3" cx="130.2" cy="44.3" rx="4.3" ry="4.3"/>
	<ellipse transform="matrix(0.7071 -0.7071 0.7071 0.7071 6.7043 181.3508)" class="st3" cx="222.3" cy="82.6" rx="4.3" ry="4.3"/>
	<ellipse transform="matrix(0.7071 -0.7071 0.7071 0.7071 -34.6997 126.1956)" class="st3" cx="135" cy="105" rx="4.3" ry="4.3"/>
	<circle class="st3" cx="48.6" cy="135.5" r="3.7"/>
	
		<ellipse transform="matrix(0.9032 -0.4292 0.4292 0.9032 -20.9026 236.4566)" class="st1" cx="513.9" cy="164.6" rx="8.3" ry="8.3"/>
	<ellipse transform="matrix(0.9032 -0.4292 0.4292 0.9032 -48.0915 243.5385)" class="st3" cx="516" cy="228.4" rx="3.7" ry="3.7"/>
	
		<ellipse transform="matrix(0.3352 -0.9421 0.9421 0.3352 186.6689 639.0389)" class="st3" cx="546.2" cy="187.2" rx="3.7" ry="3.7"/>
	
		<ellipse transform="matrix(0.7071 -0.7071 0.7071 0.7071 -11.9798 150.4589)" class="st2" cx="175.6" cy="89.7" rx="7.4" ry="7.4"/>
	<ellipse transform="matrix(0.7071 -0.7071 0.7071 0.7071 -51.2617 85.971)" class="st2" cx="78.1" cy="104.9" rx="6" ry="6"/>
	
		<ellipse transform="matrix(0.1836 -0.983 0.983 0.1836 142.2122 285.7271)" class="st1" cx="243.1" cy="57.2" rx="14.1" ry="14.1"/>
	<ellipse transform="matrix(0.1836 -0.983 0.983 0.1836 297.4242 434.1607)" class="st1" cx="410.1" cy="38" rx="14.1" ry="14.1"/>
	
		<ellipse transform="matrix(0.1836 -0.983 0.983 0.1836 205.4988 399.2871)" class="st1" cx="343.1" cy="75.9" rx="10.2" ry="10.2"/>
	<ellipse transform="matrix(0.1836 -0.983 0.983 0.1836 160.1369 330.4305)" class="st2" cx="279" cy="68.8" rx="6" ry="6"/>
	<ellipse transform="matrix(0.1836 -0.983 0.983 0.1836 213.7456 289.3317)" class="st1" cx="281.1" cy="16" rx="4.3" ry="4.3"/>
	<ellipse transform="matrix(0.1836 -0.983 0.983 0.1836 313.0247 478.863)" class="st3" cx="444.8" cy="51" rx="4.3" ry="4.3"/>
	<ellipse transform="matrix(0.1836 -0.983 0.983 0.1836 214.1005 632.4128)" class="st3" cx="487.8" cy="187.3" rx="4.3" ry="4.3"/>
	<ellipse transform="matrix(0.1836 -0.983 0.983 0.1836 236.7513 463.5043)" class="st3" cx="397.4" cy="89.2" rx="4.3" ry="4.3"/>
	<ellipse transform="matrix(0.8249 -0.5653 0.5653 0.8249 36.7212 189.0022)" class="st3" cx="323.5" cy="35.2" rx="3.7" ry="3.7"/>
	<ellipse transform="matrix(0.1836 -0.983 0.983 0.1836 241.346 518.8093)" class="st2" cx="433" cy="114.1" rx="7.4" ry="7.4"/>
	<ellipse transform="matrix(0.1836 -0.983 0.983 0.1836 256.7581 393.688)" class="st2" cx="365.4" cy="42.3" rx="6" ry="6"/>
	<g>
		<rect x="113.2" y="233" class="st4" width="334.5" height="196.7"/>
		<polygon class="st5" points="460.8,429.7 362.4,429.7 336.2,429.7 106.6,429.7 93.5,501.9 106.6,541.2 336.2,541.2 362.4,541.2 
			460.8,541.2 473.9,501.9 		"/>
		<path class="st6" d="M205,160.9h-19.5h-0.2v0c-42.6,0.1-79.8,28.7-91.1,69.8c-1.4,5,0.6,2.4,1.8,2.4h89.3h6.6h91.8v-72.1H205z"/>
		<path class="st7" d="M388.6,233h82.9c1.2,0,2.6,1.1,1.7-2.2l0-0.2c-10.6-39-44.7-66.7-84.6-69.5v-0.3h-6.7h-19.5h-78.7V233h91.8
			H388.6z"/>
		<path class="st8" d="M205,409.9l-52.5-52.5l7.4-7.4c24.9-24.9,65.3-24.9,90.2,0l7.4,7.4L205,409.9C205,409.9,205,409.9,205,409.9z
			"/>
		<rect x="191.9" y="409.9" class="st9" width="26.2" height="19.7"/>
		<circle class="st6" cx="349.3" cy="403.5" r="19.7"/>
		<circle class="st10" cx="388.6" cy="403.5" r="19.7"/>
		<circle class="st11" cx="369" cy="370.7" r="19.7"/>
		<path class="st7" d="M283.7,233h-91.8l0,0c7.6-41.8,44-72.1,86.4-72.1h5.4V233z"/>
		<path class="st6" d="M375.5,233h-91.8v-72.1h5.4C331.5,160.9,367.9,191.2,375.5,233L375.5,233z"/>
		<path class="st10" d="M146,292h-6.6c-25.4,0-45.9-20.6-45.9-45.9V234c0-0.6,0.5-1,1-1h97.3v13.1C191.9,271.5,171.3,292,146,292z"
			/>
		<path class="st11" d="M237.8,292L237.8,292c-25.4,0-45.9-20.6-45.9-45.9V233h91.8v13.1C283.7,271.5,263.2,292,237.8,292z"/>
		<path class="st10" d="M329.6,292L329.6,292c-25.4,0-45.9-20.6-45.9-45.9V233h91.8v13.1C375.5,271.5,355,292,329.6,292z"/>
		<path class="st11" d="M428,292h-6.6c-25.4,0-45.9-20.6-45.9-45.9V233h97.3c0.6,0,1,0.5,1,1v12.1C473.9,271.5,453.3,292,428,292z"
			/>
		<path class="st12" d="M106.6,278.2v151.5h26.2V291.5C122.7,290,113.5,285.2,106.6,278.2z"/>
		<path class="st12" d="M434.5,291.5v138.2h26.2V278.2C453.9,285.2,444.8,290,434.5,291.5z"/>
		<g class="st13">
			<polygon class="st10" points="93.5,501.9 106.6,541.2 231.2,541.2 218.1,501.9 			"/>
			<polygon class="st10" points="349.3,501.9 336.2,541.2 460.8,541.2 473.9,501.9 			"/>
		</g>
		<polygon class="st14" points="336.2,541.2 231.2,541.2 218.1,501.9 349.3,501.9 		"/>
		<path class="st15" d="M205,409.9C205,409.9,205,409.9,205,409.9l6.6-6.6v-45.9c0-3.6-2.9-6.6-6.6-6.6c-3.6,0-6.6,2.9-6.6,6.6v45.9
			L205,409.9z"/>
		<path class="st16" d="M250.9,416.5h-91.8c-3.6,0-6.6-2.9-6.6-6.6c0-3.6,2.9-6.6,6.6-6.6h91.8c3.6,0,6.6,2.9,6.6,6.6
			C257.5,413.5,254.5,416.5,250.9,416.5z"/>
		<polygon class="st6" points="231.2,429.7 106.6,429.7 93.5,501.9 218.1,501.9 		"/>
		<polygon class="st6" points="473.9,501.9 460.8,429.7 336.2,429.7 349.3,501.9 		"/>
		<polygon class="st10" points="336.2,429.7 231.2,429.7 218.1,501.9 349.3,501.9 		"/>
	</g>
</g>
</svg>
