<?xml version="1.0" encoding="iso-8859-1"?>
<!-- Generator: Adobe Illustrator 19.0.0, SVG Export Plug-In . SVG Version: 6.00 Build 0)  -->
<svg version="1.1" id="Layer_1" xmlns="http://www.w3.org/2000/svg" xmlns:xlink="http://www.w3.org/1999/xlink" x="0px" y="0px"
	 viewBox="0 0 512 512" style="enable-background:new 0 0 512 512;" xml:space="preserve">
<g>
	<g>
		<g>
			<path d="M362.684,106.911c-9.789-9.79-22.526-15.299-35.862-15.515c-14.004-0.262-27.141,5.092-37.024,14.976
				c-6.313,6.313-9.534,15.038-8.838,23.938c0.697,8.9,5.234,17.019,12.45,22.274l51.994,37.862
				c5.338,3.887,11.611,5.865,17.928,5.865c4.715,0.001,9.457-1.103,13.85-3.339c10.278-5.23,16.664-15.644,16.664-27.177v-6.533
				c0-13.664-5.321-26.51-14.983-36.173L362.684,106.911z M371.342,165.796c0,4.42-3.052,6.45-4.365,7.119
				c-1.312,0.668-4.751,1.942-8.325-0.661l-51.993-37.862c-2.588-1.884-3.154-4.464-3.261-5.833
				c-0.107-1.371,0.051-4.007,2.316-6.271c5.422-5.423,12.601-8.392,20.263-8.392c0.161,0,0.321,0.001,0.482,0.003
				c7.356,0.119,14.759,3.374,20.312,8.927l16.179,16.179c5.411,5.411,8.392,12.607,8.392,20.258V165.796z"/>
			<path d="M414.669,87.284l-16.718-16.718c-19.226-19.226-44.789-29.815-71.979-29.815c-27.191,0-52.753,10.589-71.979,29.814
				l-39.416,39.417V78.769h2.813c6.215,0,11.253-5.038,11.253-11.253V11.253C228.642,5.038,223.604,0,217.39,0H99.236
				c-6.215,0-11.253,5.038-11.253,11.253v56.264c0,6.215,5.038,11.253,11.253,11.253h2.792
				c-0.222,25.952-5.683,51.133-16.269,74.863c-12.105,27.136-18.242,55.96-18.242,85.674v228.801
				c0,24.202,19.69,43.892,43.892,43.892H400.59c24.204,0,43.894-19.69,43.894-43.892V159.262
				C444.484,132.073,433.895,106.511,414.669,87.284z M110.488,22.505h95.648v33.758h-95.648V22.505z M421.978,432.335h-54.037
				c-6.215,0-11.253,5.038-11.253,11.253s5.038,11.253,11.253,11.253h54.037v13.266c0,11.794-9.594,21.388-21.387,21.388H111.409
				c-11.793,0-21.387-9.594-21.387-21.387v-13.266h54.037c6.215,0,11.253-5.038,11.253-11.253s-5.038-11.253-11.253-11.253H90.022
				v-193.03c0-26.534,5.481-52.275,16.289-76.506c11.882-26.635,18.015-54.898,18.236-84.031h67.522v58.38
				c0,4.551,2.742,8.654,6.946,10.396s9.045,0.779,12.263-2.44l58.626-58.627c14.976-14.976,34.887-23.223,56.066-23.223
				c21.179,0,41.089,8.248,56.066,23.223l16.717,16.717c14.977,14.977,23.225,34.887,23.225,56.066V432.335z"/>
			<path d="M329.143,220.785H182.857c-6.215,0-11.253,5.038-11.253,11.253v146.286c0,6.215,5.038,11.253,11.253,11.253h146.286
				c6.215,0,11.253-5.038,11.253-11.253V232.037C340.396,225.822,335.358,220.785,329.143,220.785z M256,367.07
				c-10.858,0-19.692-8.835-19.692-19.692c0-6.681,9.062-26.995,19.692-47.107c10.63,20.112,19.692,40.427,19.692,47.107
				C275.692,358.236,266.858,367.07,256,367.07z M317.89,367.07h-24.585c3.118-5.883,4.893-12.583,4.893-19.692
				c0-18.673-24.852-62.88-32.469-75.984c-2.014-3.466-5.72-5.598-9.729-5.598s-7.714,2.132-9.729,5.598
				c-7.617,13.104-32.469,57.311-32.469,75.984c0,7.109,1.775,13.809,4.893,19.692H194.11V243.29h123.78V367.07z"/>
			<path d="M190.195,432.336h-1.125c-6.215,0-11.253,5.038-11.253,11.253s5.038,11.253,11.253,11.253h1.125
				c6.215,0,11.253-5.038,11.253-11.253S196.409,432.336,190.195,432.336z"/>
			<path d="M322.93,432.336h-1.125c-6.215,0-11.253,5.038-11.253,11.253s5.038,11.253,11.253,11.253h1.125
				c6.215,0,11.253-5.038,11.253-11.253S329.145,432.336,322.93,432.336z"/>
		</g>
	</g>
</g>
<g>
</g>
<g>
</g>
<g>
</g>
<g>
</g>
<g>
</g>
<g>
</g>
<g>
</g>
<g>
</g>
<g>
</g>
<g>
</g>
<g>
</g>
<g>
</g>
<g>
</g>
<g>
</g>
<g>
</g>
</svg>
