<?xml version="1.0" encoding="iso-8859-1"?>
<!-- Generator: Adobe Illustrator 19.0.0, SVG Export Plug-In . SVG Version: 6.00 Build 0)  -->
<svg version="1.1" id="Layer_1" xmlns="http://www.w3.org/2000/svg" xmlns:xlink="http://www.w3.org/1999/xlink" x="0px" y="0px"
	 viewBox="0 0 512 512" style="enable-background:new 0 0 512 512;" xml:space="preserve">
<g>
	<g>
		<g>
			<path d="M495.832,199.411h-55.809L429.794,10.197C429.485,4.479,424.758,0,419.032,0h-53.895
				c-5.727,0-10.453,4.479-10.763,10.197l-10.228,189.214h-22.692L311.226,10.197C310.917,4.479,306.19,0,300.463,0h-53.895
				c-5.727,0-10.455,4.479-10.763,10.197l-10.228,189.214H16.168c-5.953,0-10.779,4.827-10.779,10.779v291.032
				c0,5.952,4.826,10.779,10.779,10.779h479.663c5.952,0,10.779-4.827,10.779-10.779V210.189
				C506.611,204.237,501.784,199.411,495.832,199.411z M375.349,21.558h33.472l9.614,177.853h-52.699L375.349,21.558z
				 M256.78,21.558h33.472l9.614,177.853h-52.698L256.78,21.558z M218.274,490.442H70.063V394.92h148.211V490.442z M218.274,373.362
				H70.063v-23.046h148.211V373.362z M485.053,490.442H239.832V339.537c0-5.952-4.826-10.779-10.779-10.779H59.284
				c-5.953,0-10.779,4.827-10.779,10.779v150.905H26.947V220.968h458.105V490.442z"/>
			<path d="M275.402,426.718h77.608c5.952,0,10.779-4.827,10.779-10.779s-4.827-10.779-10.779-10.779h-66.829v-54.844h155.756
				v65.623c0,5.952,4.827,10.779,10.779,10.779c5.952,0,10.779-4.827,10.779-10.779v-76.402c0-5.952-4.827-10.779-10.779-10.779
				H275.402c-5.952,0-10.779,4.827-10.779,10.779v76.402C264.623,421.891,269.45,426.718,275.402,426.718z"/>
			<path d="M404.749,405.16h-1.078c-5.952,0-10.779,4.827-10.779,10.779c0,5.952,4.827,10.779,10.779,10.779h1.078
				c5.952,0,10.779-4.827,10.779-10.779C415.528,409.987,410.702,405.16,404.749,405.16z"/>
			<path d="M59.284,307.2h66.021c5.953,0,10.779-4.827,10.779-10.779v-43.116c0-5.952-4.826-10.779-10.779-10.779H59.284
				c-5.953,0-10.779,4.827-10.779,10.779v43.116C48.505,302.373,53.331,307.2,59.284,307.2z M70.063,264.084h44.463v21.558H70.063
				V264.084z"/>
			<path d="M168.421,307.2h66.021c5.953,0,10.779-4.827,10.779-10.779v-43.116c0-5.952-4.826-10.779-10.779-10.779h-66.021
				c-5.953,0-10.779,4.827-10.779,10.779v43.116C157.642,302.373,162.468,307.2,168.421,307.2z M179.2,264.084h44.463v21.558H179.2
				V264.084z"/>
		</g>
	</g>
</g>
<g>
</g>
<g>
</g>
<g>
</g>
<g>
</g>
<g>
</g>
<g>
</g>
<g>
</g>
<g>
</g>
<g>
</g>
<g>
</g>
<g>
</g>
<g>
</g>
<g>
</g>
<g>
</g>
<g>
</g>
</svg>
