<?xml version="1.0" encoding="iso-8859-1"?>
<!-- Generator: Adobe Illustrator 19.0.0, SVG Export Plug-In . SVG Version: 6.00 Build 0)  -->
<svg version="1.1" id="Layer_1" xmlns="http://www.w3.org/2000/svg" xmlns:xlink="http://www.w3.org/1999/xlink" x="0px" y="0px"
	 viewBox="0 0 512 512" style="enable-background:new 0 0 512 512;" xml:space="preserve">
<g>
	<g>
		<g>
			<path d="M287.347,185.469h-62.694c-5.77,0-10.449,4.678-10.449,10.449v57.469c0,5.771,4.679,10.449,10.449,10.449h62.694
				c5.77,0,10.449-4.678,10.449-10.449v-57.469C297.796,190.147,293.117,185.469,287.347,185.469z M276.898,242.939h-41.796v-36.571
				h41.796V242.939z"/>
			<path d="M480.25,180.245h-9.99c-0.03,0-0.055-0.025-0.055-0.055V94.096c0-5.801-4.703-10.504-10.504-10.504h-57.359
				c-5.801,0-10.504,4.703-10.504,10.504v71.479c0,0.043-0.047,0.07-0.084,0.048l-39.473-23.119
				c-13.295-7.788-28.424-11.892-43.831-11.892H203.552c-15.408,0-30.537,4.104-43.832,11.892l-39.473,23.119
				c-0.037,0.022-0.084-0.005-0.084-0.048V94.096c0-5.801-4.703-10.504-10.504-10.504H52.3c-5.801,0-10.504,4.703-10.504,10.504
				v86.093c0,0.03-0.025,0.055-0.055,0.055h-9.99C14.215,180.245,0,194.46,0,211.995v25.316c0,17.535,14.215,31.75,31.75,31.75h9.99
				c0.03,0,0.055,0.025,0.055,0.055v54.746c0,5.801,4.703,10.504,10.504,10.504h57.359c5.801,0,10.504-4.703,10.504-10.504V288.67
				c0-0.042,0.044-0.068,0.081-0.05l41.847,20.923c1.765,0.882,3.563,1.696,5.385,2.454c0.032,0.014,0.044,0.052,0.025,0.082
				l-31.672,47.869c-1.155,1.745-1.716,3.757-1.714,5.776l-0.021-0.01v41.741c0,0.03-0.025,0.055-0.055,0.055H31.755
				c-5.594,0-10.502,4.219-10.838,9.803c-0.365,6.065,4.445,11.096,10.429,11.096h408.147c5.594,0,10.502-4.219,10.838-9.803
				c0.365-6.064-4.445-11.095-10.429-11.095h-61.942c-0.03,0-0.055-0.025-0.055-0.055v-41.741l-0.021,0.01
				c0.002-2.019-0.559-4.031-1.714-5.776l-31.672-47.869c-0.019-0.029-0.007-0.068,0.025-0.081c1.822-0.759,3.622-1.572,5.385-2.454
				l41.847-20.923c0.037-0.019,0.081,0.008,0.081,0.05v35.193c0,5.801,4.703,10.504,10.504,10.504H459.7
				c5.801,0,10.504-4.703,10.504-10.504v-54.746c0-0.03,0.025-0.055,0.055-0.055h9.99c17.535,0,31.75-14.215,31.75-31.75v-25.316
				C512,194.46,497.785,180.245,480.25,180.245z M41.796,248.108c0,0.03-0.025,0.055-0.055,0.055h-9.99
				c-5.994,0-10.852-4.859-10.852-10.852v-25.316c0-5.994,4.859-10.852,10.852-10.852h9.99c0.03,0,0.055,0.025,0.055,0.055V248.108z
				 M99.265,313.414c0,0.03-0.025,0.055-0.055,0.055H62.749c-0.03,0-0.055-0.025-0.055-0.055V104.545
				c0-0.03,0.025-0.055,0.055-0.055H99.21c0.03,0,0.055,0.025,0.055,0.055V313.414z M357.007,376.219v31.236
				c0,0.03-0.025,0.055-0.055,0.055H155.048c-0.03,0-0.055-0.025-0.055-0.055v-31.236c0-0.03,0.025-0.055,0.055-0.055h201.904
				C356.982,376.163,357.007,376.188,357.007,376.219z M347.956,355.18c0.024,0.037-0.002,0.087-0.046,0.087H164.09
				c-0.044,0-0.071-0.049-0.046-0.087l24.122-36.461c0.01-0.016,0.028-0.025,0.046-0.025h135.574c0.02,0,0.037,0.009,0.047,0.025
				L347.956,355.18z M391.837,265.182c0,0.021-0.011,0.041-0.03,0.05l-31.896,15.948c-0.038,0.018-0.082-0.009-0.082-0.05v-45.619
				c0-5.593-4.218-10.501-9.802-10.838c-6.064-0.366-11.096,4.444-11.096,10.429v56.472c0,0.022-0.013,0.042-0.032,0.051
				c-8.658,4.026-18.204,6.171-27.75,6.171H200.851c-9.546,0-19.092-2.145-27.75-6.171c-0.02-0.009-0.032-0.029-0.032-0.051v-56.063
				c0-5.593-4.218-10.501-9.802-10.838c-6.064-0.366-11.096,4.444-11.096,10.429v46.028c0,0.042-0.044,0.068-0.08,0.05
				l-31.896-15.948c-0.019-0.009-0.03-0.028-0.03-0.05v-75.259c0-0.02,0.01-0.038,0.027-0.048l50.09-29.339
				c10.092-5.911,21.576-9.027,33.271-9.027h104.896c11.696,0,23.179,3.116,33.271,9.027l50.09,29.339
				c0.017,0.01,0.027,0.028,0.027,0.048V265.182z M449.306,313.414c0,0.03-0.025,0.055-0.055,0.055H412.79
				c-0.03,0-0.055-0.025-0.055-0.055V104.545c0-0.03,0.025-0.055,0.055-0.055h36.461c0.03,0,0.055,0.025,0.055,0.055V313.414z
				 M491.102,237.311c0,5.994-4.859,10.852-10.852,10.852h-9.99c-0.03,0-0.055-0.025-0.055-0.055v-46.91
				c0-0.03,0.025-0.055,0.055-0.055h9.99c5.994,0,10.852,4.859,10.852,10.852V237.311z"/>
			<path d="M161.973,186.273c-5.584,0.336-9.802,5.244-9.802,10.838v0.228c0,5.593,4.218,10.501,9.802,10.838
				c6.064,0.366,11.096-4.444,11.096-10.429v-1.045C173.069,190.717,168.036,185.907,161.973,186.273z"/>
			<path d="M349.38,186.253c-5.77,0-10.449,4.678-10.449,10.449v1.045c0,5.771,4.679,10.449,10.449,10.449
				c5.77,0,10.449-4.678,10.449-10.449v-1.045C359.829,190.931,355.151,186.253,349.38,186.253z"/>
			<path d="M479.608,407.51c-2.748,0-5.444,1.118-7.387,3.062c-1.943,1.944-3.062,4.639-3.062,7.387
				c0,2.748,1.117,5.444,3.062,7.387c1.945,1.944,4.639,3.062,7.387,3.062s5.444-1.118,7.386-3.062
				c1.943-1.943,3.063-4.639,3.063-7.387c0-2.748-1.118-5.444-3.063-7.387C485.052,408.628,482.356,407.51,479.608,407.51z"/>
		</g>
	</g>
</g>
<g>
</g>
<g>
</g>
<g>
</g>
<g>
</g>
<g>
</g>
<g>
</g>
<g>
</g>
<g>
</g>
<g>
</g>
<g>
</g>
<g>
</g>
<g>
</g>
<g>
</g>
<g>
</g>
<g>
</g>
</svg>
