<?xml version="1.0" encoding="iso-8859-1"?>
<!-- Generator: Adobe Illustrator 19.0.0, SVG Export Plug-In . SVG Version: 6.00 Build 0)  -->
<svg version="1.1" id="Layer_1" xmlns="http://www.w3.org/2000/svg" xmlns:xlink="http://www.w3.org/1999/xlink" x="0px" y="0px"
	 viewBox="0 0 512 512" style="enable-background:new 0 0 512 512;" xml:space="preserve">
<g>
	<g>
		<g>
			<path d="M437.02,74.98C388.667,26.628,324.381,0,256,0C187.62,0,123.333,26.628,74.981,74.98C26.628,123.333,0,187.619,0,256
				c0,68.38,26.628,132.667,74.981,181.02C123.334,485.373,187.62,512,256,512s132.667-26.628,181.02-74.981
				C485.372,388.667,512,324.38,512,256C512,187.619,485.372,123.333,437.02,74.98z M256,489.739
				C127.116,489.739,22.261,384.884,22.261,256S127.116,22.261,256,22.261S489.739,127.116,489.739,256S384.884,489.739,256,489.739
				z"/>
			<path d="M256,55.652C145.528,55.652,55.652,145.528,55.652,256S145.528,456.348,256,456.348S456.348,366.472,456.348,256
				S366.472,55.652,256,55.652z M429.579,216.105c0.002,0.009,0.003,0.018,0.006,0.026c1.991,8.685,0.483,17.625-4.248,25.178
				c-4.735,7.559-12.131,12.823-20.821,14.819c-2.471,0.568-5.001,0.855-7.519,0.855c-15.636,0-29.003-10.659-32.504-25.918
				c0-0.002,0-0.003-0.001-0.004c-4.125-17.94,7.122-35.892,25.071-40.018c2.505-0.577,5.032-0.86,7.541-0.86
				c6.193,0,12.277,1.735,17.655,5.106C422.315,200.019,427.578,207.413,429.579,216.105z M368.735,149.71
				c4.169-8.651,5.87-17.855,5.418-26.831c15.07,13.388,27.857,29.289,37.702,47.042c-8.803-2.444-18.127-2.678-27.281-0.574
				c-15.432,3.548-27.864,13.246-35.363,25.896c-3.945-6.03-8.457-11.656-13.463-16.801
				C349.965,173.787,362.083,163.524,368.735,149.71z M345.043,256c0,49.099-39.945,89.043-89.043,89.043
				S166.957,305.099,166.957,256s39.945-89.043,89.043-89.043S345.043,206.901,345.043,256z M332.954,95.413
				c0.068,0.033,0.138,0.065,0.206,0.097c16.538,8.013,23.502,27.974,15.52,44.537c-5.531,11.485-17.349,18.907-30.108,18.907
				c-4.969,0-9.791-1.099-14.338-3.258c-0.07-0.033-0.14-0.066-0.209-0.099c-7.995-3.876-14.011-10.626-16.945-19.017
				c-2.944-8.42-2.433-17.483,1.438-25.516C296.489,94.524,316.396,87.528,332.954,95.413z M256,77.913
				c10.24,0,20.277,0.88,30.05,2.549c-7.29,5.238-13.421,12.297-17.585,20.937c-6.453,13.391-7.305,28.495-2.399,42.528
				c0.15,0.431,0.328,0.847,0.49,1.272c-3.477-0.329-6.997-0.504-10.556-0.504c-3.66,0-7.277,0.182-10.848,0.53
				c5.166-13.774,4.937-29.544-1.97-43.795c-4.186-8.634-10.335-15.679-17.64-20.902C235.444,78.816,245.618,77.913,256,77.913z
				 M161.557,114.754c2.901-8.354,8.858-15.09,16.786-18.994c0.091-0.044,0.181-0.091,0.273-0.136
				c4.655-2.244,9.58-3.309,14.433-3.309c12.402,0,24.337,6.937,30.102,18.827c8.002,16.51,1.125,36.441-15.315,44.524
				c-0.088,0.042-0.174,0.086-0.262,0.128c-4.568,2.193-9.426,3.307-14.444,3.307c-12.921,0-24.446-7.216-30.076-18.833
				c0-0.001,0-0.002-0.001-0.003C159.164,132.241,158.632,123.179,161.557,114.754z M137.488,123.196
				c-0.425,9.148,1.43,18.311,5.537,26.782c6.682,13.786,18.825,24.022,33.049,28.644c-4.991,5.155-9.49,10.786-13.42,16.824
				c-7.526-12.634-19.979-22.304-35.418-25.817c-9.347-2.127-18.685-1.733-27.321,0.702
				C109.712,152.554,122.457,136.624,137.488,123.196z M82.258,216.859c0.036-0.158,0.068-0.317,0.104-0.474
				c3.56-15.411,17.327-25.884,32.531-25.884c2.443,0,4.925,0.27,7.407,0.835c17.952,4.084,29.235,22.009,25.153,39.961
				c-3.48,15.307-16.855,25.997-32.522,25.997c-2.503,0-5.004-0.28-7.431-0.835c-0.001,0-0.003,0-0.006-0.001
				C89.658,252.4,78.407,234.686,82.258,216.859z M91.649,324.568c-7.66-18.293-12.354-38.124-13.471-58.891
				c6.742,5.948,15.003,10.356,24.37,12.487c4.049,0.923,8.214,1.391,12.382,1.391c11.288,0,21.858-3.334,30.694-9.168
				c0.926,7.143,2.534,14.074,4.753,20.73c-14.551-1.965-29.842,1.752-42.187,11.621C100.825,308.627,95.203,316.113,91.649,324.568
				z M117.386,367.673c-0.314-0.392-0.631-0.779-0.943-1.173c-5.27-6.87-7.649-15.358-6.688-23.988
				c0.987-8.864,5.368-16.814,12.336-22.385c6.142-4.91,13.5-7.294,20.813-7.294c9.758,0,19.43,4.251,26.015,12.407
				c0.061,0.077,0.125,0.154,0.186,0.232c11.398,14.377,9.032,35.347-5.308,46.811c-5.994,4.793-13.196,7.325-20.831,7.325
				C133.027,379.607,123.755,375.262,117.386,367.673z M207.135,427.27c-19.752-5.643-38.111-14.62-54.428-26.279
				c9.081-1.631,17.719-5.507,24.991-11.322c11.608-9.279,18.907-22.526,20.551-37.3c0.044-0.397,0.061-0.794,0.097-1.19
				c6.068,3.69,12.516,6.814,19.269,9.303c-10.624,10.139-17.271,24.408-17.271,40.218
				C200.344,410.321,202.817,419.368,207.135,427.27z M256.792,434.076c-0.265,0.002-0.528,0.011-0.792,0.011
				c-0.089,0-0.176-0.003-0.265-0.003c-18.292-0.141-33.131-15.061-33.131-33.385c0-18.412,14.979-33.391,33.391-33.391h0.248
				c0.026,0,0.051,0,0.078,0c8.889,0,17.252,3.454,23.555,9.727c6.321,6.293,9.814,14.671,9.834,23.584
				C289.744,418.872,275.053,433.775,256.792,434.076z M305.231,427.159c4.303-7.91,6.758-16.964,6.741-26.587
				c-0.034-14.864-5.855-28.826-16.39-39.314c-0.305-0.303-0.626-0.583-0.936-0.877c6.734-2.501,13.163-5.634,19.212-9.331
				c0.036,0.396,0.055,0.791,0.099,1.189c1.676,14.771,9.005,28.005,20.632,37.264c0,0.001,0,0.001,0,0.001
				c7.275,5.791,15.923,9.647,25.02,11.254C343.314,412.455,324.972,421.473,305.231,427.159z M395.772,366.232
				c-0.323,0.409-0.653,0.81-0.979,1.215c-6.357,7.57-15.617,11.902-25.565,11.902c-7.623,0-14.806-2.511-20.772-7.259
				c-6.977-5.556-11.373-13.498-12.38-22.362c-0.997-8.777,1.455-17.415,6.898-24.355c0.141-0.177,0.285-0.351,0.425-0.528
				c5.542-6.788,13.365-11.069,22.086-12.06c8.865-1.006,17.581,1.499,24.562,7.058c6.979,5.55,11.378,13.487,12.385,22.349
				C403.413,350.837,401.046,359.342,395.772,366.232z M403.908,302.424c-11.628-9.258-26.164-13.43-40.935-11.757
				c-0.424,0.048-0.84,0.124-1.262,0.183c2.198-6.649,3.791-13.572,4.699-20.706c8.818,5.792,19.348,9.1,30.586,9.1
				c4.19,0,8.393-0.477,12.499-1.418c9.177-2.11,17.481-6.408,24.346-12.473c-1.077,20.749-5.732,40.567-13.344,58.857
				C416.924,315.762,411.284,308.291,403.908,302.424z"/>
		</g>
	</g>
</g>
<g>
</g>
<g>
</g>
<g>
</g>
<g>
</g>
<g>
</g>
<g>
</g>
<g>
</g>
<g>
</g>
<g>
</g>
<g>
</g>
<g>
</g>
<g>
</g>
<g>
</g>
<g>
</g>
<g>
</g>
</svg>
